<mxfile host="drawio-plugin" modified="2023-11-09T23:20:03.885Z" agent="5.0 (Macintosh; Intel Mac OS X 10_15_7) AppleWebKit/537.36 (KHTML, like Gecko) Chrome/111.0.0.0 Safari/537.36" etag="TaR8hHw0isNu8wGgv8t7" version="20.5.3" type="embed"><diagram name="Page-1" id="b1HUwyOnShDGKJ7FnFwD"><mxGraphModel dx="407" dy="383" grid="1" gridSize="10" guides="1" tooltips="1" connect="1" arrows="1" fold="1" page="1" pageScale="1" pageWidth="850" pageHeight="1100" math="0" shadow="0"><root><mxCell id="0"/><mxCell id="1" parent="0"/><mxCell id="YDrvO1anJlEtCm3CYAJg-29" value="j" style="endArrow=none;html=1;rounded=0;exitX=1.004;exitY=0.839;exitDx=0;exitDy=0;exitPerimeter=0;entryX=0.004;entryY=0.926;entryDx=0;entryDy=0;entryPerimeter=0;startArrow=diamondThin;startFill=1;endFill=0;startSize=13;" parent="1" target="7" edge="1"><mxGeometry relative="1" as="geometry"><mxPoint x="360.96000000000004" y="549.41" as="sourcePoint"/><mxPoint x="430" y="451.81818181818176" as="targetPoint"/><Array as="points"><mxPoint x="380" y="540"/><mxPoint x="380" y="510"/><mxPoint x="380" y="470"/><mxPoint x="400" y="460"/></Array></mxGeometry></mxCell><mxCell id="YDrvO1anJlEtCm3CYAJg-30" value="Each Student is associated with at least one ZoomMeeting" style="edgeLabel;resizable=0;html=1;align=center;verticalAlign=middle;rotation=0;" parent="YDrvO1anJlEtCm3CYAJg-29" connectable="0" vertex="1"><mxGeometry relative="1" as="geometry"><mxPoint x="-110" y="-50" as="offset"/></mxGeometry></mxCell><mxCell id="3" value="" style="endArrow=diamondThin;html=1;rounded=0;entryX=0.673;entryY=0.011;entryDx=0;entryDy=0;entryPerimeter=0;startArrow=none;startFill=0;exitX=0.4;exitY=1.011;exitDx=0;exitDy=0;exitPerimeter=0;startSize=12;endFill=0;endSize=12;" parent="1" source="7" target="10" edge="1"><mxGeometry width="50" height="50" relative="1" as="geometry"><mxPoint x="531.8900000000001" y="472.28" as="sourcePoint"/><mxPoint x="529.1199999999999" y="717.06" as="targetPoint"/></mxGeometry></mxCell><mxCell id="4" value="Each ZoomMeeting is associated with at least one AttendanceAggregate" style="text;html=1;strokeColor=none;fillColor=none;align=center;verticalAlign=middle;whiteSpace=wrap;rounded=0;" parent="1" vertex="1"><mxGeometry x="520" y="580" width="60" height="30" as="geometry"/></mxCell><mxCell id="6" value="" style="endArrow=diamondThin;html=1;rounded=0;exitX=0.925;exitY=1;exitDx=0;exitDy=0;exitPerimeter=0;entryX=0.338;entryY=-0.005;entryDx=0;entryDy=0;entryPerimeter=0;endFill=0;endSize=12;" parent="1" target="10" edge="1"><mxGeometry width="50" height="50" relative="1" as="geometry"><mxPoint x="342" y="580" as="sourcePoint"/><mxPoint x="404.96000000000004" y="715.94" as="targetPoint"/></mxGeometry></mxCell><mxCell id="7" value="&lt;p style=&quot;margin:0px;margin-top:4px;text-align:center;&quot;&gt;&lt;i&gt;ZoomMeeting&lt;/i&gt;&lt;/p&gt;&lt;hr size=&quot;1&quot;&gt;&lt;p style=&quot;margin: 0px 0px 0px 4px;&quot;&gt;+ zoomMeetingId: Long&lt;br&gt;+ created(): Instant&lt;/p&gt;&lt;p style=&quot;margin: 0px 0px 0px 4px;&quot;&gt;+ started(): Instant&lt;/p&gt;&lt;p style=&quot;margin: 0px 0px 0px 4px;&quot;&gt;+ duration: Long&lt;/p&gt;&lt;p style=&quot;margin: 0px 0px 0px 4px;&quot;&gt;+ student: Student&lt;/p&gt;&lt;hr size=&quot;1&quot;&gt;&lt;p style=&quot;margin: 0px 0px 0px 4px;&quot;&gt;&lt;br&gt;&lt;/p&gt;" style="verticalAlign=top;align=left;overflow=fill;fontSize=12;fontFamily=Helvetica;html=1;" parent="1" vertex="1"><mxGeometry x="440" y="260" width="240" height="190" as="geometry"/></mxCell><mxCell id="10" value="&lt;p style=&quot;margin:0px;margin-top:4px;text-align:center;&quot;&gt;&lt;i&gt;&lt;b&gt;AttendanceAggregate&lt;/b&gt;&lt;/i&gt;&lt;br&gt;&lt;/p&gt;&lt;p style=&quot;margin:0px;margin-left:4px;&quot;&gt;+ student: Student&lt;/p&gt;&lt;p style=&quot;margin:0px;margin-left:4px;&quot;&gt;+ zoomMeetings: List&amp;lt;ZoomMeetings&amp;gt;&lt;/p&gt;&lt;hr size=&quot;1&quot;&gt;&lt;p style=&quot;margin:0px;margin-left:4px;&quot;&gt;+ sum(): Int&lt;br&gt;+ dailyAverage(): Int&lt;/p&gt;&lt;p style=&quot;margin:0px;margin-left:4px;&quot;&gt;+ timeSpent(): Int&lt;/p&gt;&lt;p style=&quot;margin:0px;margin-left:4px;&quot;&gt;+ startOfMostRecentMeeting(): Int&lt;/p&gt;&lt;p style=&quot;margin:0px;margin-left:4px;&quot;&gt;+ startOfHistoricallyLastMeeting(): Int&lt;/p&gt;&lt;p style=&quot;margin:0px;margin-left:4px;&quot;&gt;+ titledReports(): String&lt;/p&gt;&lt;p style=&quot;margin:0px;margin-left:4px;&quot;&gt;&lt;br&gt;&lt;/p&gt;&lt;p style=&quot;margin:0px;margin-left:4px;&quot;&gt;&lt;br&gt;&lt;/p&gt;" style="verticalAlign=top;align=left;overflow=fill;fontSize=12;fontFamily=Helvetica;html=1;" parent="1" vertex="1"><mxGeometry x="280" y="720" width="370" height="190" as="geometry"/></mxCell><mxCell id="11" value="Each Student has an AttendanceAggregate" style="text;html=1;resizable=0;autosize=1;align=center;verticalAlign=middle;points=[];fillColor=none;strokeColor=none;rounded=0;" parent="1" vertex="1"><mxGeometry x="120" y="650" width="250" height="30" as="geometry"/></mxCell><mxCell id="30" value="Student" style="swimlane;fontStyle=0;childLayout=stackLayout;horizontal=1;startSize=26;fillColor=none;horizontalStack=0;resizeParent=1;resizeParentMax=0;resizeLast=0;collapsible=1;marginBottom=0;" vertex="1" parent="1"><mxGeometry x="160" y="502" width="200" height="78" as="geometry"/></mxCell><mxCell id="31" value="+ id: Long" style="text;strokeColor=none;fillColor=none;align=left;verticalAlign=top;spacingLeft=4;spacingRight=4;overflow=hidden;rotatable=0;points=[[0,0.5],[1,0.5]];portConstraint=eastwest;" vertex="1" parent="30"><mxGeometry y="26" width="200" height="26" as="geometry"/></mxCell><mxCell id="32" value="+ name: String" style="text;strokeColor=none;fillColor=none;align=left;verticalAlign=top;spacingLeft=4;spacingRight=4;overflow=hidden;rotatable=0;points=[[0,0.5],[1,0.5]];portConstraint=eastwest;" vertex="1" parent="30"><mxGeometry y="52" width="200" height="26" as="geometry"/></mxCell></root></mxGraphModel></diagram></mxfile>